# xmcd
#
# Track frame offsets:
#	150
#	26998
#	47646
#	58530
#	80342
#	106445
#	123023
#	132390
#	148179
#	158370
#	172349
#	195698
#	224260
#	242250
#	256734
#	268312
#	282196
#	299217
#	317637
#
# Disc length: 4602 seconds
#
# Revision: 0
# Processed by: cddbd v1.5.1PL0 Copyright (c) Steve Scherf et al.
# Submitted via: dBpowerAMP V4.0
#
DISCID=2211f813
DTITLE=Various Artist - Música de Rabequeiros
DYEAR=2004
DGENRE=Folklore
TTITLE0=Na Chegada Desta Casa
TTITLE1=Palavras Querem Dizer/Na Casa do Turco
TTITLE2=Caranguejo Danado
TTITLE3=O Verdadeiro Romance de João Calais
TTITLE4=Pé Quebrado
TTITLE5=Toadas de Cavalo-MArinho
TTITLE6=Mambo Solto
TTITLE7=Coco da Bicharada
TTITLE8=Violino no Choro
TTITLE9=Meu Verso
TTITLE10=Viva Raimundo
TTITLE11=Canoa/Xiba
TTITLE12=Choro dos Velho Apaixonado/Tope de Ladeira
TTITLE13=Mucunã
TTITLE14=A Força
TTITLE15=Na Casa de Dona Dá
TTITLE16=Árvore da Dança
TTITLE17=Moreninha
TTITLE18=Despedida
EXTD=Música de Rabequeiros (PB)
EXTT0=
EXTT1=
EXTT2=
EXTT3=
EXTT4=
EXTT5=
EXTT6=
EXTT7=
EXTT8=
EXTT9=
EXTT10=
EXTT11=
EXTT12=
EXTT13=
EXTT14=
EXTT15=
EXTT16=
EXTT17=
EXTT18=
PLAYORDER=
